<?xml version="1.0" encoding="utf-8"?>
<!-- Generator: Adobe Illustrator 25.2.1, SVG Export Plug-In . SVG Version: 6.00 Build 0)  -->
<svg version="1.1" xmlns="http://www.w3.org/2000/svg" xmlns:xlink="http://www.w3.org/1999/xlink" x="0px" y="0px"
	 viewBox="0 0 275 125" style="enable-background:new 0 0 275 125;" xml:space="preserve">
<style type="text/css">
	.st0{fill:#FFFFFF;}
	.st1{fill-rule:evenodd;clip-rule:evenodd;fill:#FFFFFF;}
</style>
<g id="Capa_2">
	<g>
		<path class="st0" d="M86.2,59.8c0,0.7-0.5,1.2-0.5,1.9c0,0.2,0.1,0.5,0.1,0.7c0,0.5-0.1,0.9-0.1,1.4c0,0.1,0,0.2,0,0.4
			c0,0-0.5,0.8-0.5,1.6c0,0.6,0.1,1.2,0.1,1.7c0,0.2-0.3,1.4-0.4,2c0,0.1,0,0.2,0,0.4c0,1-0.3,3.4-1.7,3.4c-1.7,0-1.7-0.4-1.9-1.1
			c-0.3-1.4-0.4-3.6-0.4-5.1c0-0.5,0.5-0.8,0.5-1.4c0-0.1,0-0.2,0-0.4c0-0.2,0.3-0.5,0.3-0.7c0-0.3-0.5-0.8-0.5-1.4
			c0-1.8,0.7-3.1,0.9-4.8c0.4-2,1-4.3,1-6.1c0-0.4-0.5-0.7-0.5-1.1c0-0.6,0.6-0.8,1.2-0.8c1.3,0,1.5,2.1,1.6,3.8
			c-0.2,0.6-0.2,1.7-0.2,2.3c0,0.1,0,0.5,0.2,0.5c0.3,0,0.4-0.4,0.4-0.6c0-1.2,1-1.1,1.1-2c0-0.2-0.1-0.4-0.1-0.7
			c0-0.3,0.6-1.5,1.1-1.9c0.4-0.4,0.1-1.2,0.9-1.4c0.1,0,0.1-0.1,0.2-0.2c0.3-0.7,0.8-1.4,1.5-1.8c0.6-0.4,0.9-1.1,1.6-1.1
			c0,0,0.1,0,0.2,0c0.3-0.5,1.1-0.5,1.5-0.5c0.2,0,1.6,0.4,1.6,0.7c0,0.1,0,0.2,0,0.3c0,0.2,0.1,0.2,0.3,0.3c0.4,0.2,0.5,2,0.6,2.8
			c0,0.5-0.4,1-0.5,1.5c-0.1,0.8-0.9,1.3-0.9,1.7s-0.6,0.6-0.6,1.1c0,0.5-0.8,0.4-0.8,0.9c0,0.2,0.3,0.4,0.5,0.4s0.5-0.1,0.7-0.1
			c1.2,0,2,0,2.9,0.7c0.5,0.4,1.2,1.6,1.9,1.6c0.3,0,1.5-0.6,1.9-0.6c0.4,0,0.7,0.5,0.7,0.9c0,2-3,0-3,5.7c0,0.1,0,0.2,0,0.4
			c0,0.6-0.6,1.1-0.6,1.6c0,1-0.5,1.6-0.7,2.5c-0.6,0.6-0.7,1.3-1,2c-0.3,0.6-0.8,1.2-1.1,1.8c0,0.1-1.6,2.2-2.1,2.3
			c-0.2,0-0.9,1-2,1c-0.5,0-1.1-0.5-1.6-0.7c-0.9-0.4-1.3-1.7-1.3-2.8c0-0.2,0-0.4,0.1-0.6c0.6-2,1.2-3.9,2.3-5.6
			c1.5-2.1,3.1-4,5.1-5.6c0.4-0.4,1.1-0.5,1.1-1.1c0-1.4-1.1-1.9-2.4-1.9c-0.3,0-0.6,0-1,0.1c-1.7,0.5-1.8,0.9-4,3
			c-0.5,0.6-2,2.5-2.6,2.5c-0.7,0-1.3-0.8-1.3-1.4c0-0.2,0-0.5,0-0.8c0.8-0.8,2-2.1,3.2-2.6c0.5-0.5,1-1,1.5-1.5
			c0.6-0.7,2.5-2.4,2.5-3.2c0-0.4-0.2-0.7-0.2-1.1c0-0.2,0.1-0.4,0.2-0.6c0.2-0.8,0.5-1.6,0.5-2.4c0-0.8-0.1-1.3-0.6-1.3
			c-0.7,0-1.9,0.6-2.5,0.9l0,0c-0.1,0.2-0.1,0.6-0.4,0.6c-0.6,0.1-0.6,0.9-1.2,0.9c-0.1,0-0.2,0-0.4-0.1c0,0.8,0,1.5-0.4,2.1
			c0-0.1,0.1-0.1,0.1-0.2c0-0.1,0-0.1-0.1-0.1c0,0-0.1,0-0.1,0c0,0.1,0.1,0.2,0.1,0.3c-0.3,0.3-0.6,0.6-0.6,1c0,0.1,0,0.2,0,0.3
			c0,0.3-1.1,1.6-1.4,2c0,0,0,0,0-0.1c0,0,0-0.1,0.1-0.1c0,0.1,0,0.1-0.1,0.2c0,0.3,0,0.6,0,0.9c0,0.1,0,0.2,0,0.3
			c0,0.2,0.2,0.5,0.2,0.7c0,0.4-0.2,0.7-0.4,1c0,0,0-0.1,0-0.1s0-0.1-0.1-0.1c0,0-0.1,0-0.1,0.1c0,0.1,0.1,0.1,0.1,0.2
			C86.2,59.5,86.2,59.7,86.2,59.8z M96.3,63.6c-0.6,0.6-5.6,4.8-5.8,9.8c0,0.3,0,0.8,0.5,0.8c0.5,0,0.8-0.2,1.3-0.3
			c0,0,1.6-1.4,1.6-1.7c0-0.1,0-0.2,0-0.3c0-0.7,1-0.7,1-1.6c0-0.5,0.7-0.8,0.7-1.2c0-0.2-0.2-0.4-0.3-0.6c0.5-1.2,1.9-2.8,1.9-3.9
			c0-0.4-0.2-0.7-0.3-1.3C96.6,63.2,96.5,63.4,96.3,63.6z M90.7,49.7C90.7,49.7,90.6,49.7,90.7,49.7C90.7,49.7,90.7,49.7,90.7,49.7z
			"/>
		<path class="st0" d="M112.3,63.7c-0.1,0.4-0.6,0.6-0.6,1c-0.4,0.2-0.5,0.7-0.6,1.1c-0.7,2.1-1.2,4.2-3.7,4.2
			c-1.3,0-3.1-1.1-3.1-3.1c0-1-0.5-1.8-0.5-2.7c0-0.7,0.1-1.5,0.2-2.3c0.1-1.1,0.4-6,0.9-6c1,0,2.8,0,2.8,1.5c0,2.5-0.3,3.5-0.3,6.4
			c0,1.1,0.1,2.2,0.5,2.2c0.5-0.3,0.9-1,1.2-1.5c1.7-2.3,3.6-4.5,5.9-6.2c0.6-0.4,1-1,1.8-1c2.2,0,2.7,0.3,2.7,2.8
			c0,1.8-0.6,2.5-0.6,3.8c0,0.4,0,0.8,0,1.2c0,0.8-0.5,1.5-0.5,2.4c0,0.1,0,0.3,0,0.5c0,0.8-0.1,1.6-0.4,2.3c-0.1,0.3-0.2,0.6-0.2,1
			c0,0.5,0.1,1.4,0.4,1.4c0.5,0,1.9-2.9,2.3-3.8c0.6-1.1,1.2-2.3,2-3.3c0.4-0.8,1-2.1,2-2.1c0.2,0,0.6,0,0.6,0.4
			c-0.3,0.9-1.3,1.9-1.9,2.8c-0.5,0.9-0.8,1.8-1.4,2.6c-0.3,0.5-0.1,1.1-0.5,1.5c-1,1.2-1.3,4.6-3.5,4.6c-0.7,0-1.7-0.6-1.8-1.1
			c-0.1-0.7-0.8-1.2-0.8-3c0-0.2,0.1-0.5,0.1-0.8c0-0.2-0.1-0.5-0.1-0.8c0-0.5,0-1,0-1.5c0-0.5-0.1-1.1-0.1-1.6c0-1.3,0.4-2.7,0.4-4
			c0-0.1,0-0.3,0-0.5c0-0.5,0.1-1.1,0.1-1.6c0-0.1,0-0.3,0-0.5C114.4,59.8,112.4,63.2,112.3,63.7z"/>
		<path class="st0" d="M123.4,65.2c0.4-0.1,0.6-1.4,0.9-1.6c0-0.2,0-0.3,0-0.5c0-0.6,0.4-1.3,0.4-1.7c0.1-1.3,1-2.7,1.6-3.9
			c0.2-0.4,1.1-2.2,1.4-2.2c0.1,0,0.2,0,0.2,0c0.4,0,0.7-0.1,1.1-0.1c1.1,0,1.2,1.3,1.4,2.1c0,0.2-0.1,0.4-0.1,0.7
			c0.6-0.8,1.6-1.7,1.7-2.2c0.1-0.6,1.7-2,2.9-2c1.9,0,2.5,1.9,2.5,3.2c0,1.4-0.3,1.9-1.3,2.6c-0.6,0.5-0.5,1.5-1,1.5
			c-1.5,0-1.1-4.3-1.6-4.3c0,0,0,0-0.1,0c-1.4,0.9-3.2,3.6-3.9,5.3c-0.2,0.6-0.4,1.2-0.8,1.7c-0.6,0.9-0.4,1.7-1.4,4.1
			c-0.5,1.2-0.5,2.5-1.1,3.7c0-0.1-0.6,3-2,3c-0.9,0-1.2-1.2-1.2-2.4c0-0.3,0.1-0.6,0.1-1c0-0.5-0.1-1-0.1-1.6
			c0-0.7,0.1-1.9,0.6-2.5c0,0,0-0.1,0-0.1c0-0.2-0.2-0.4-0.2-0.6c0-0.3,0.1-0.8,0.2-1.1L123.4,65.2z M128.2,62.4l-0.1,0.1h0.1
			L128.2,62.4z"/>
		<path class="st0" d="M151.8,72c0,0.4-0.6,1.2-1,1.4c0.2,0.2,0.4,0.3,0.4,0.4c0,0.2-0.4,0.5-0.4,0.7c0,0.2,0.4,0.2,0.4,0.4
			c0,0.3-0.5,0.5-0.5,0.9c0,0.2,0.1,0.4,0.1,0.5c0,0.3-0.2,0.6-0.2,0.9c0,0.1-0.6,0.5-0.6,1c0,0.5,0.2,0.7,0.2,1
			c0,0.9-0.9,3.4-0.9,3.9c0,0,0,0.1,0,0.1c0,0.6-0.9,1.8-0.9,2.1c0,0.1,0.1,0.3,0.1,0.4c0,0.2-0.3,0.4-0.3,0.6
			c0,0.9-0.8,1.8-0.8,2.4c0,0.1,0.1,0.2,0.1,0.3c0,0.3-0.4,0.5-0.4,0.8c0,1.6-1.3,2.7-2.8,2.7c-0.4,0-0.8,0-1.2-0.2
			c-1.9-1.2-3-1.9-3-5.5c0-0.8,0.2-1.6,0.2-2.4c0-0.5,0.7-3.5,1.3-3.9c0.6-0.5,0.1-1.5,0.9-2c0.1-0.1,0.1-0.2,0.2-0.4
			c0.2-0.8,0.6-1.1,1-1.9c0.2-0.8,0.6-1.4,1.3-1.8c0.1,0,0.1-0.1,0.1-0.2c0.3-1.2,1.6-1.6,1.9-2.5c0.1-0.2,1.3-2,1.6-2
			c0.1,0,0.2,0,0.3,0.1c0.3-0.8,1.2-2.3,1.2-3.3c0-0.4-0.2-0.7-0.2-1c0-0.4,0.3-0.9,0.3-1.4c0-0.3-0.1-0.6-0.1-0.9
			c0-0.7,0.2-1.5,0.2-2.2c0-0.4,0-1-0.2-1c-0.1,0-0.2,0-0.2,0.1c-0.2,0.7-0.6,1-1.3,1c0,0-0.1,0-0.1-0.1c-0.2,0-0.4,1.1-0.8,1.2
			v-0.1l0,0c-0.1,0.1-0.2,0.4-0.3,0.4c-0.8,0.2-1.1,1.2-1.7,1.4c-0.5,0.2-0.6,0.7-1,1.1c-0.4,0.4-0.6,0.5-1,1
			c-0.1,0.6-1.3,2.8-2.5,3.1c-2.2,0-3.5-1.3-3.5-3.4c0-0.9,0.4-1.4,0.5-1.9c0.1-0.6,0.4-1.3,0.7-1.9c0.2-0.6,1-0.7,1.2-1.4
			c0.2-0.7,1.2-1.1,1.4-1.9c0.4-1,2.8-3,4.6-3c0.7,0,1.3,0.1,2,0.2c0.8,0.2,1.4,1,1.9,1c0.2,0,0.3-0.1,0.5-0.3
			c0.7-0.7,0.4-0.9,1-0.9c1.1,0,3.1,0.4,3.1,2.1c0,1.4-1.4,3.8-1.4,5.8c0,0.5-0.5,0.9-0.5,1.4s0.1,0.5,0.4,0.5
			c0.2,0,0.4-0.1,0.6-0.2c0.2-0.2,2-1.1,2.8-1.1c0.4,0,1.6,0.4,1.6,1.2c0,0.7-1,0.4-1.2,0.7c-0.4,0.5-1.1,0.4-1.6,0.6
			c-1.1,0.6-1.2,1-1.8,1.4c-0.5,0.5-0.4-0.3-1.7,1.5c-0.2,0.2-0.1,0.7-0.4,1c-0.1,0.1-0.4,0.6-0.4,0.7c0,0,0,0,0,0
			C151.8,71.6,151.8,71.8,151.8,72z M148.9,58.1c-0.6,0-4.8,3-4.8,3.3c0,0.4-0.6,1.2-1.1,1.8c-0.3,0.4-1.3,1.7-1.3,2
			c0.1,0.2,0,0.3,0.2,0.3c0,0,0.1,0,0.1,0c1.5-0.9,2.5-2.5,3.8-3.2c0.4-0.2,1-1.3,1.6-1.7c0.4-0.3,0.8-0.6,1-1c0.3-0.5,1-0.1,1.1-1
			C149.3,58.4,149.3,58.1,148.9,58.1z M147.3,84.6c0-0.3,0.4-0.7,0.4-1.1c0-1.4,0.8-2.7,0.8-4.2c0-0.6,0.4-1,0.4-1.4
			c0-0.2-0.3-0.4-0.3-0.5c0,0,0-0.1,0.1-0.2c0.1-0.2,0.6-2.4,0.6-3.6c0-0.1-0.3-0.4-0.4-0.4c-0.1,0-0.9,0.7-1.1,1
			c-2.4,4.2-5.6,8-5.6,13.3c0,1,0.2,2.4,1.3,2.8c0.5-0.1,0.9-0.2,1.4-0.4c0.3-0.4,0.5-0.7,0.8-1c0.3-0.3,0.1-0.7,0.4-1.1
			c0.6-0.8,0.4-1.9,1.4-2.7C147.4,85,147.3,84.8,147.3,84.6z M146.5,62.1C146.5,62.2,146.5,62.2,146.5,62.1c-0.1,0.1-0.1,0.2,0,0.2
			c0,0,0.1,0,0.1-0.1C146.6,62.2,146.6,62.2,146.5,62.1z M148,62.5L148,62.5L148,62.5L148,62.5z M150.2,75.7c0,0,0.1,0.1,0.1,0.1
			c0,0,0.1-0.1,0.1-0.1c0,0,0,0,0-0.1C150.2,75.6,150.2,75.6,150.2,75.7z"/>
		<path class="st0" d="M159,59.3c0.3-1,1.5-1.3,1.8-2.1c0.5-0.5,1-1.2,1.8-1.6c0.5-0.2,0.7-0.7,1.3-0.7c1.8,0,4.9,1.4,4.9,3.3
			c0,0.1,0,0.2,0,0.4c0,0.2,0,0.5,0,0.7c0,0.4-0.1,0.8-0.5,1c-0.4,0.2-0.5,0.7-0.8,1.1c-0.2,0.2-0.5,0.5-0.7,0.8
			c-0.4,0.7-2.4,2.6-4.4,2.6c-0.5,0-1-0.1-1.5-0.1c-0.7,0-0.7,1-0.7,1.6c0,1.6,0.1,4.6,1.4,4.6c0.5,0,1.2-0.4,1.6-0.7
			c1.9-1.6,3.8-3.1,5.7-4.7c0.4-0.4,1.9-2.1,3-2.1c0.2,0,0.6,0.1,0.6,0.4c0,0.5-1.1,0.9-1.4,1.1c0,0-1.9,1.6-1.9,2
			c0,0.3-0.2,0.9-0.6,0.9c-1,0.5-1.5,2.1-2.1,2.3c-0.6,0.2-2.9,3.1-3.5,3.1c-0.1,0-0.2,0-0.4-0.1c-0.2,0.1-0.5,0.3-0.7,0.4
			c-1.4-0.1-2.3-0.1-3.1-1.2c-0.1-0.2-0.2-0.4-0.3-0.4c-0.6-0.3-1-1.6-1-1.7c0-0.1,0.1-0.3,0.1-0.5c0-0.3-0.4-0.6-0.4-0.9
			c0-0.1,0.1-0.2,0.1-0.4c0-0.2-0.1-0.4-0.1-0.7c0-0.2,0.2-0.4,0.2-0.6c0-0.2-0.2-0.5-0.2-0.8c0-0.7,0-2.3,0.4-2.9
			c0.5-0.6,0.4-1.7,0.9-2.5c-0.1,0.1-0.1,0.2-0.1,0.4c0,0.1,0,0.1,0.1,0.2c0,0,0.1,0,0.1-0.1c0-0.1,0-0.3-0.1-0.4
			C158.5,60.4,158.8,59.9,159,59.3z M165.8,59.1c0-0.6-0.1-1.6-0.9-1.6c-2.3,0-4.2,3.8-4.2,4.7c0,0.2,0.2,0.2,0.7,0.3
			C162.8,62.4,165.8,61.4,165.8,59.1z"/>
		<path class="st0" d="M170.9,65.2c0.4-0.1,0.6-1.4,0.9-1.6c0-0.2,0-0.3,0-0.5c0-0.6,0.4-1.3,0.4-1.7c0.1-1.3,1-2.7,1.6-3.9
			c0.2-0.4,1.1-2.2,1.4-2.2c0.1,0,0.2,0,0.2,0c0.4,0,0.7-0.1,1.1-0.1c1.1,0,1.2,1.3,1.4,2.1c0,0.2-0.1,0.4-0.1,0.7
			c0.6-0.8,1.6-1.7,1.7-2.2c0.1-0.6,1.7-2,2.9-2c1.9,0,2.5,1.9,2.5,3.2c0,1.4-0.3,1.9-1.3,2.6c-0.6,0.5-0.5,1.5-1,1.5
			c-1.5,0-1.1-4.3-1.6-4.3c0,0,0,0-0.1,0c-1.4,0.9-3.2,3.6-3.9,5.3c-0.2,0.6-0.4,1.2-0.8,1.7c-0.6,0.9-0.4,1.7-1.4,4.1
			c-0.5,1.2-0.5,2.5-1.1,3.7c0-0.1-0.6,3-2,3c-0.9,0-1.2-1.2-1.2-2.4c0-0.3,0.1-0.6,0.1-1c0-0.5-0.1-1-0.1-1.6
			c0-0.7,0.1-1.9,0.6-2.5c0,0,0-0.1,0-0.1c0-0.2-0.2-0.4-0.2-0.6c0-0.3,0.1-0.8,0.2-1.1L170.9,65.2z M175.7,62.4l-0.1,0.1h0.1
			L175.7,62.4z"/>
		<path class="st0" d="M201.9,54.4c0.2-0.1,0.4-0.2,0.6-0.2c1.2,0,1.2,3.4,1.2,6.2c0,0.3-0.2,0.8-0.2,1.2c0,0.3,0.1,0.7,0.1,1
			c-0.2,2.1-1,3.8-1.6,5.7c-0.2,0.6-1.4,1.8-1.4,3c0,1.4,1.7,2,2.1,3.4c-0.2,0.4-0.5,0.8-0.9,0.8c-1,0-2.5-2.5-3-2.5
			c-0.5,0-0.8,0.9-1.6,0.9c-0.3,0-0.5,0.2-0.8,0.4c-0.7,0-1.4,0.2-2,0.2c-0.6,0-1.4-0.2-2-0.5c-0.4-0.1-0.6-0.4-1-0.6
			c-1-0.3-1.7-0.8-2.3-1.7c-0.2-0.3-0.4-0.7-0.8-0.9c-0.4-0.5-1.5-1.9-1.5-4.4c0-0.4,0-0.7,0-1.1c0-0.7-0.1-1.4-0.1-2
			c0-0.6,0.2-1.1,0.2-1.7c0-0.4-0.2-0.8-0.2-1.1c0-1.1,0.7-2.3,0.7-3.6c0-0.9,0.9-3.7,1.8-5.3c0.3-0.5,1.4-3.2,2.3-3.2
			c0.6,0,1.5,0.5,2.3,0.5c0.7,0,1.2,0.2,1.8,0.2c0.1,0,0.2-0.1,0.4-0.1c0.2,0,0.5,0.2,0.7,0.2c0.2-0.2,0.4-0.4,0.6-0.5
			c0.1,0,0.2,0.1,0.2,0.1c0,0.1-0.1,0.2-0.1,0.4c0,0.3,0.2,0.8,0.4,0.8c0.3,0,0.7-0.9,0.9-1.1c0,0.1,0,0.1,0,0.1c0,0,0,0,0-0.1
			c0,0-0.1,0-0.1,0c0.1-0.1,0.2-0.2,0.4-0.2c0.3,0,0.6,0.5,0.8,0.8c-0.2,0-0.4,0.1-0.4,0.1c0,0.2,0.3,0.5,0.5,0.5
			c0.1,0,0.1,0,0.1-0.1c-0.1,0-0.1-0.1-0.2-0.1c-0.1,0-0.1,0-0.2,0.1c0-0.2,0.1-0.4,0.1-0.6c1.1,0,0.6,0.9,1.6,1.4
			c-0.3,0.3-0.4,0.5-0.4,0.9c0,0.2,0,0.7,0.2,0.7c0.1,0,0.1-0.2,0.1-0.4c0-0.3-0.1-0.6-0.1-0.9c0-0.1,0-0.2,0.1-0.4
			C201.9,50.8,201.9,53.6,201.9,54.4z M188.2,62.4c0,0.1,0.1,0.1,0.1,0.2c0-0.1,0.1-0.1,0.1-0.2c0-0.1,0-0.4-0.2-0.4
			C188.2,62.1,188.2,62.3,188.2,62.4z M188.3,63.3c-0.1,0-0.2,0.2-0.2,0.3c0,0.1,0.1,0.2,0.1,0.4c0.1-0.1,0.1-0.2,0.2-0.2
			C188.4,63.5,188.4,63.4,188.3,63.3z M188.4,60.6c0-0.1,0-0.1-0.1-0.2c0,0.1-0.1,0.1-0.1,0.2c0,0.1,0,0.2,0.1,0.2
			C188.3,60.8,188.4,60.7,188.4,60.6z M188.9,61.9c0,0-0.1,0-0.1,0.1c0,0,0,0.1,0.1,0.1c0,0,0,0,0.1,0
			C189,61.9,188.9,61.9,188.9,61.9z M201.5,53.9c0,0,0-0.1,0-0.1c-1.1-1.1-0.4-2.1-1.7-2.3l-0.1,0.1l0.1-0.1
			c-0.1,0.1-0.1,0.3-0.1,0.5c0,0.3,0.1,0.7,0.1,1.2c-0.4-0.7-0.9-1-1-1.5c0,0-0.6-0.8-1-0.8c-0.7,0-0.7-0.7-2.5-0.7
			c-1.4,0-2.7,3.2-3.1,4.2c-0.2,0.6-1,2-1,2.6c0,0.1,0,0.1,0,0.2c0,0.3-0.2,0.6-0.2,1c0,0.9,0,1.9-0.1,2.8c0,0.8-0.4,1.4-0.4,2.1
			c0,0.2,0,0.4,0,0.6c0,0.3-0.1,0.6-0.1,0.9c0,1.5,0.2,3.7,1.2,4.6h0c0,0.2,1.2,2.3,3.3,2.3c0.4,0,2-0.6,2-1.3c0-0.1,0-0.1,0-0.2
			c-0.3-0.8-0.6-0.8-0.6-1.6c0.3-0.1,0.6-0.4,1-0.4c0.4,0,0.9,0.5,1.2,0.5c0.9,0,2.5-4.2,2.5-6.6c0-1.1,0.8-2.1,0.8-3.4
			c0-1-0.7-1.9-0.7-2.9c0-0.1,0.1-0.3,0.2-0.4C201.3,54.7,201.5,54.2,201.5,53.9z M200.2,50.5C200.2,50.5,200.1,50.6,200.2,50.5
			c0,0.1,0,0.2,0.1,0.2c0,0,0.1,0,0.1-0.1C200.3,50.6,200.2,50.6,200.2,50.5z M202.9,56.3c0,0.1,0,0.2,0.1,0.2s0.1-0.1,0.1-0.1
			c0-0.1,0-0.6-0.1-0.6c-0.1,0-0.1,0-0.1,0.1c0,0,0,0.1,0,0.1C202.9,56.2,202.9,56.3,202.9,56.3z"/>
		<path class="st0" d="M215.8,63.7c-0.1,0.4-0.6,0.6-0.6,1c-0.4,0.2-0.5,0.7-0.6,1.1c-0.7,2.1-1.2,4.2-3.7,4.2
			c-1.3,0-3.1-1.1-3.1-3.1c0-1-0.5-1.8-0.5-2.7c0-0.7,0.1-1.5,0.2-2.3c0.1-1.1,0.4-6,0.9-6c1,0,2.8,0,2.8,1.5c0,2.5-0.3,3.5-0.3,6.4
			c0,1.1,0.1,2.2,0.5,2.2c0.5-0.3,0.9-1,1.2-1.5c1.7-2.3,3.6-4.5,5.9-6.2c0.6-0.4,1-1,1.8-1c2.2,0,2.7,0.3,2.7,2.8
			c0,1.8-0.6,2.5-0.6,3.8c0,0.4,0,0.8,0,1.2c0,0.8-0.5,1.5-0.5,2.4c0,0.1,0,0.3,0,0.5c0,0.8-0.1,1.6-0.4,2.3c-0.1,0.3-0.2,0.6-0.2,1
			c0,0.5,0.1,1.4,0.4,1.4c0.5,0,1.9-2.9,2.3-3.8c0.6-1.1,1.2-2.3,2-3.3c0.4-0.8,1-2.1,2-2.1c0.2,0,0.6,0,0.6,0.4
			c-0.3,0.9-1.3,1.9-1.9,2.8c-0.5,0.9-0.8,1.8-1.4,2.6c-0.3,0.5-0.1,1.1-0.5,1.5c-1,1.2-1.3,4.6-3.5,4.6c-0.7,0-1.7-0.6-1.8-1.1
			c-0.1-0.7-0.8-1.2-0.8-3c0-0.2,0.1-0.5,0.1-0.8c0-0.2-0.1-0.5-0.1-0.8c0-0.5,0-1,0-1.5c0-0.5-0.1-1.1-0.1-1.6c0-1.3,0.4-2.7,0.4-4
			c0-0.1,0-0.3,0-0.5c0-0.5,0.1-1.1,0.1-1.6c0-0.1,0-0.3,0-0.5C217.9,59.8,215.9,63.2,215.8,63.7z"/>
		<path class="st0" d="M243.3,55.2c0.2-0.1,0.4-0.2,0.6-0.2c1.4,0,3.2,1.2,3.2,3.1c0,1.3-0.9,2.4-1.8,3c-0.9,0.9-2,1.5-2.5,2.7
			c0,0.5,0,1.2,0,1.8c0,0.3,0,0.6,0,0.9c0,0.6,1.1,3.1,2.7,3.1c1.7,0,2.4-2.7,3.2-3.8c0.2-0.4,0.5-0.5,0.7-0.7
			c0.3-1,0.8-2.6,1.7-3.1c0.1-0.1,0.1-0.4,0.2-0.5c0.7-1.4,1.7-4.2,2.8-4.7c0.2,0,0.5,0.1,0.7,0.2c0.3,0.4-0.9,1.4-1.2,2.2
			c-0.2,0.5-0.3,1.9-0.7,1.9c0,0-0.1,0-0.2,0l-0.1,0.2c0,0.1,0,0.2,0,0.2c0,0.8-0.9,1.5-0.9,1.9c-0.3,1-1,2.1-1,3.2
			c0,0.6,0.1,1.1,0.1,1.6c-0.3-0.1-0.3-0.2-0.6-0.4c-0.9,0.7,0.2,2.1-1.5,2.1c0,0.1,0.1,0.4,0.1,0.5c-0.7,0.5-1.5,1.3-2,1.3
			c-0.2,0-0.4,0-0.6,0c-0.2,0-0.6,0.1-1,0.1c-1,0-2.5-0.2-3.4-0.7c-0.4-0.2-0.2-1.2-1.1-1.1c-0.1,0-0.1-0.2-0.1-0.2
			c-0.2-1.1-1.5-1.4-1.6-2.7c-0.5,0.9-0.7,1.5-1.1,2.2c-0.2,0.7-0.3,1.3-0.6,2h-0.5c0,1.7-0.7,2.4-3,2.4c-1.7,0-4.1-0.8-4.8-2.6
			c0.5,0,0.8,0,1.1,0c-0.2-0.1-0.2-0.2-0.2-0.2c-1.1-0.1-1.7-0.7-1.9-1.8c-0.6-0.5-0.3-1.1-0.6-1.6c-0.2-0.7-0.3-1.4-0.4-2.2
			c0.1-0.1,0.4-0.2,0.9-0.6h-1c0.1-0.8,0.1-1.9,0.3-2.9c0.4-2.2,0.8-3.5,2-5.2c0.1,0,0.2-0.2,0.4-0.2c0.8-0.2,1.7-0.5,2.7-0.5
			c1.7,0,3.3,1,3.3,2.8c0,1.9-2,4.3-3.9,5.2c-0.6,0.3-1.1,0.9-1.1,1.4c0,0.2,0.1,0.5,0.1,0.7c0,0.2-0.1,0.4-0.2,0.6
			c0.2,1-0.2,2.2,0.9,3c0.5,0.5,0.8,1.2,1.4,1.5c0.4,0.3,0.6,0.4,1,0.6c0.6-1.2,1.2-2.9,2.3-3.6c0.9-1,1-1.8,2-2.8
			c0.5-0.6,0.9-1.2,0.9-2c0-0.3-0.1-0.7-0.1-1.1c0-0.7,0.3-1.5,0.4-2.4c0-0.5,0.5-1.1,0.5-1.4c0-0.1,0-0.2,0-0.3
			c0-0.9,1.6-2.1,2.3-3.1C242.7,55.1,243,55.2,243.3,55.2z M229.3,68.6c0-0.2-0.2-0.4-0.5-0.6c0,0-0.1,0.2-0.3,0.2
			c0.2,0.3,0.4,0.4,0.7,0.8C229.3,68.8,229.3,68.7,229.3,68.6z M229.2,65.9c-0.1,0.1-0.2,0.2-0.4,0.5c0.4,0.1,0.7,0.2,1.1,0.4
			C229.7,66.3,229.5,66.2,229.2,65.9z M229.9,67.9c0,0.1,0,0.1,0.1,0.3c0.1-0.2,0.2-0.2,0.5-0.3c0,0,0-0.1-0.2-0.1L229.9,67.9z
			 M234.1,58.5c0-0.7-0.3-1.5-0.9-1.5c-0.4,0-1.5,1.5-1.8,2.1c-0.3,0.8-0.6,1.6-0.5,2.5c0,0.3,0,0.6,0.1,0.9
			C232.6,61.9,234.1,60.3,234.1,58.5z M240.4,68.2c0.1,0.1,0.1,0.2,0.3,0.2c0,0,0.2-0.2,0.2-0.2c0-0.1-0.1-0.2-0.1-0.4
			C240.7,68,240.4,68.2,240.4,68.2z M243.3,61c1-0.6,2-2,2-3c0-0.7-0.4-1.2-0.8-1.2c-0.4,0-0.5,0.2-0.8,1c-0.6,0.9-0.4,2-0.6,3.1
			C243.3,60.9,243.3,60.9,243.3,61z"/>
		<path class="st0" d="M265,76.6c-0.2,0-0.3,0.1-0.6,0.2c-1.9,0-2.5-2.6-2.6-4.5c0-0.4,0-0.7,0-1c0-0.5-0.1-0.9-0.1-1.4
			c0-0.6,0.6-1.6,0.6-1.7c0-0.1,0-0.2,0-0.4c0-0.1,0.1-0.2,0.1-0.4c0-0.2-0.4-0.4-0.4-0.6c0-0.4,0.2-0.9,0.3-1.3
			c0-0.2-0.2-0.3-0.2-0.5c0-0.1,0.1-0.1,0.1-0.2c0.4-0.3,0.5-1.1,0.5-1.4c0-0.6-0.1-1.1-0.1-1.7c0-0.3,0.1-0.7,0.1-1
			c0-0.1,0-0.3-0.1-0.3c-0.3,0-2.3,1.9-2.5,2.8c-0.1,0.6-1.1,2.2-1.6,3c-1.1,1.6-2,3.2-4,3.2c-1.4,0-1.5-2-1.5-3.5
			c0-1,0.1-1.7,0.1-2.5c0-0.3-0.1-0.6-0.1-0.9c0-0.2,0.2-0.4,0.2-0.6c0-0.2,0-0.4,0-0.6c0-1.2,0.5-2.6,0.5-3.8
			c0-0.5,1.1-0.9,1.7-0.9c1.1,0,1.1,0.9,1.1,1.7c0,1.6-0.1,3.1-0.1,4.7c-0.1,0.7-0.7,1.5-0.7,2.2c0,0.1,0.1,0.2,0.1,0.3
			c0.9,0,2.1-2.7,3.5-3.7c0.4-0.4,0.7-1.1,1.2-1.6c0.6-0.7,1.9-1.2,2.1-1.5c0.4-0.6,1.1-0.7,1.7-0.7c1.6,0,1.5,1.2,1.5,4.7
			c0,0.7-0.7,1-0.7,1.6c0,0.1,0.1,0.2,0.1,0.4c0,0.1-0.1,0.4-0.1,0.5c0,0.2,0.4,0.5,0.4,0.7c0,0.2-0.4,0.3-0.6,0.5
			c0,0.2,0.1,0.5,0.1,0.6c0,0,0,0,0,0c-0.3,0.5-0.3,1.6-0.3,2.7c0,1.1-0.1,3.1,0.3,3.1c0.5,0,1.8-3.3,2.3-4.5
			c0.1-0.3,0.6-0.3,0.6-0.5c0-0.5,0.1-0.8,0.5-1.2c0.7-0.7,0.9-2.4,2.3-2.4c0.2,0,0.4,0.1,0.4,0.4c0,0.6-1.2,2.4-1.6,2.7
			c-0.2,0.3,0,0.9-0.3,1.1c-0.6,0.6-0.5,1.3-0.9,1.7c0,0-0.5,1.9-0.5,1.9c0,0.2,0.1,0.5,0.1,0.7c0,0.7-0.7,1.1-0.7,1.6
			c0,0.4,0,0.6-0.4,0.8c-0.1,0.1-0.5,1.2-1.1,1.7C265.3,76.6,265.1,76.6,265,76.6z M262.9,65.8C262.9,65.8,262.9,65.8,262.9,65.8
			c-0.1,0.2-0.1,0.2,0,0.3c0-0.1,0-0.1,0.1-0.2C263,65.9,262.9,65.8,262.9,65.8z M264.2,71.5L264.2,71.5l0-0.1L264.2,71.5z"/>
	</g>
</g>
<g id="Capa_1">
	<g>
		<path class="st0" d="M5.2,84H68c0,0,3.3,1.2,3.3,4.6c0,0-0.2,2.9-3.1,4.1h-63c0,0-3.1,0.2-3.8-4.3C1.3,88.4,1.9,84,5.2,84z"/>
		<path class="st0" d="M3.3,98.1c0,0,2.9-3.3,7.7-2.6c0,0,3.8,0.5,5.5,3.4c0,0,2.9,1.6,5.6-0.9c0,0,1.4-2.4,5.3-2.6
			c0,0,4.1-0.1,5.6,2c0,0,1.6,2.2,3.3,2c0,0,2.9-0.1,4.4-2c0,0,1.7-2.1,4.8-2c0,0,2.4-0.2,5.1,2c0,0,1.7,2.4,4.3,2c0,0,2.2-1,4.1-3
			c0,0,1.9-1.1,4.8-0.9c0,0,4.9,0.1,5.6,4c0,0-0.7,2.6-2.9,1.2c0,0-0.7-1.4-3.4-1.4c0,0-3.1,0.5-3.8,1.9c0,0-2.2,1.7-4.8,1.9
			c0,0-3.9-0.2-6.3-2.6c0,0-0.9-1.1-3.1-1.2c0,0-3.4,0.3-4.6,2.3c0,0-1.4,1.4-3.8,1.4c0,0-3.9-0.2-6-2.4c0,0-1.6-1.6-3.8-1.4
			c0,0-2,0.2-3.9,2.2c0,0-1.7,1.7-4.5,1.6c0,0-3.2,0.2-5.8-2.6c0,0-1.3-1.1-3.2-1.2c0,0-2.7,0.2-2.7,0.9c0,0-1.8,2-3.8,0.5
			C3.3,100.5,2.4,99,3.3,98.1z"/>
		<path class="st0" d="M67.5,105H5.3c0,0-2.1,0.5-2,2.4c0,0-0.3,7.5,7.2,10.7c6.9,2.8,14.6,4,27.5,4c0,0,16.7-1.1,21.6-4.1
			c2.8-1.7,6.3-3.6,9.3-9.4C69.1,108.4,70.4,105.8,67.5,105z M12.9,112.4l-0.9-2L13,110l1.6,1.6L12.9,112.4z M18.6,118.5l-2-2.5
			l1.2-0.9l2.8,1.5L18.6,118.5z M27.2,114.7l-0.9-2l0.9-0.4l1.6,1.6L27.2,114.7z M36.4,120h-1.6v-1.6h1.6V120z M44.3,114.7l-1.6-0.9
			l1.6-1.6l0.9,0.4L44.3,114.7z M54.7,117.5l-2-1.9l2.8-1.5l1.2,0.9L54.7,117.5z M60.4,111.5l-1.6-0.9l1.6-1.6l0.9,0.4L60.4,111.5z"
			/>
		<path class="st0" d="M69.4,78.4c0,0,0.9-15.7-32.1-17c0,0-27.8-1.6-33.6,15.8c0,0-1.3,2.7,1.6,3.4h62.2
			C67.4,80.8,69.6,80.1,69.4,78.4z M18,75.5c-3.1,5.7-7.6,2.7-7.6,2.7s-1.2-0.9,0-2.7c0,0,1.3-3.9,5.6-3.3
			C20.3,72.9,19.6,72.5,18,75.5z M28.3,66.7c-2.3,4.2-5.6,2-5.6,2s-0.9-0.6,0-2c0,0,0.9-2.9,4.2-2.4C30,64.9,29.6,64.5,28.3,66.7z
			 M33.3,75.6c-1.6,2.7-3.7,1.3-3.7,1.3s-0.5-0.4,0-1.3c0,0,0.6-1.9,2.7-1.6C34.4,74.3,34,74.1,33.3,75.6z M44.4,69.8
			c-1.6-3.6-1.6-2.9,1.6-3.1c5.8-0.3,5.6,4.5,5.6,4.5s-0.1,1.3-2,1.3C49.6,72.5,46,73.4,44.4,69.8z M52.7,78.7c0,0-0.2,0.5-1.1,0.2
			c0,0-1.7-0.2-1.9-1.9c-0.2-1.7-0.2-1.5,1.1-1.1C53.5,76.7,52.7,78.7,52.7,78.7z M62.4,74.9c0,0-0.1,0.9-1.4,0.9c0,0-2.5,0.6-3.6-2
			c-1.1-2.5-1.1-2,1.1-2.1C62.6,71.5,62.4,74.9,62.4,74.9z"/>
		<g>
			<path class="st1" d="M6.3,26.8c1.5,8.4,3.3,16,3.3,24.5h54c0-8.8,2.3-16.9,4-25.5L50.7,38.8L37.1,14.4L24,38L6.3,26.8z"/>
			<path class="st1" d="M4.8,14.4c2.6,0,4.6,2.1,4.6,4.6c0,2.6-2.1,4.6-4.6,4.6c-2.6,0-4.6-2.1-4.6-4.6C0.2,16.5,2.3,14.4,4.8,14.4z
				"/>
			<path class="st1" d="M37.1,2.4c2.6,0,4.6,2.1,4.6,4.6c0,2.6-2.1,4.6-4.6,4.6c-2.6,0-4.6-2.1-4.6-4.6C32.5,4.5,34.5,2.4,37.1,2.4z
				"/>
			<path class="st1" d="M67.9,14.4c2.6,0,4.6,2.1,4.6,4.6c0,2.6-2.1,4.6-4.6,4.6c-2.6,0-4.6-2.1-4.6-4.6
				C63.2,16.5,65.3,14.4,67.9,14.4z"/>
			<polygon class="st1" points="9.8,52.4 63.5,52.4 63.5,58.1 9.8,58.1 			"/>
		</g>
	</g>
</g>
</svg>
